<svg width="1440" height="64" viewBox="0 0 1440 64" fill="none" xmlns="http://www.w3.org/2000/svg">
<rect width="1440" height="64" fill="white"/>
<path d="M133.487 23H125.522C122.063 23 120 25.0615 120 28.5195V36.471C120 39.9385 122.063 42 125.522 42H133.478C136.937 42 139 39.9385 139 36.4805V28.5195C139.009 25.0615 136.947 23 133.487 23ZM126.758 37.155C126.758 37.421 126.549 37.63 126.283 37.63H123.631C123.365 37.63 123.156 37.421 123.156 37.155V32.766C123.156 32.1675 123.64 31.683 124.239 31.683H126.283C126.549 31.683 126.758 31.892 126.758 32.158V37.155ZM131.301 37.155C131.301 37.421 131.092 37.63 130.826 37.63H128.174C127.908 37.63 127.699 37.421 127.699 37.155V28.453C127.699 27.8545 128.184 27.37 128.782 27.37H130.227C130.826 27.37 131.311 27.8545 131.311 28.453V37.155H131.301ZM135.854 37.155C135.854 37.421 135.645 37.63 135.379 37.63H132.727C132.461 37.63 132.252 37.421 132.252 37.155V33.7825C132.252 33.5165 132.461 33.3075 132.727 33.3075H134.77C135.369 33.3075 135.854 33.792 135.854 34.3905V37.155Z" fill="black"/>
<path d="M153.078 38.192C152.193 38.192 151.334 38.0747 150.502 37.84C149.681 37.5947 149.02 37.28 148.518 36.896L149.398 34.944C149.878 35.296 150.449 35.5787 151.11 35.792C151.772 36.0053 152.433 36.112 153.094 36.112C153.83 36.112 154.374 36.0053 154.726 35.792C155.078 35.568 155.254 35.2747 155.254 34.912C155.254 34.6453 155.148 34.4267 154.934 34.256C154.732 34.0747 154.465 33.9307 154.134 33.824C153.814 33.7173 153.377 33.6 152.822 33.472C151.969 33.2693 151.27 33.0667 150.726 32.864C150.182 32.6613 149.713 32.336 149.318 31.888C148.934 31.44 148.742 30.8427 148.742 30.096C148.742 29.4453 148.918 28.8587 149.27 28.336C149.622 27.8027 150.15 27.3813 150.854 27.072C151.569 26.7627 152.438 26.608 153.462 26.608C154.177 26.608 154.876 26.6933 155.558 26.864C156.241 27.0347 156.838 27.28 157.35 27.6L156.55 29.568C155.516 28.9813 154.481 28.688 153.446 28.688C152.721 28.688 152.182 28.8053 151.83 29.04C151.489 29.2747 151.318 29.584 151.318 29.968C151.318 30.352 151.516 30.64 151.91 30.832C152.316 31.0133 152.929 31.1947 153.75 31.376C154.604 31.5787 155.302 31.7813 155.846 31.984C156.39 32.1867 156.854 32.5067 157.238 32.944C157.633 33.3813 157.83 33.9733 157.83 34.72C157.83 35.36 157.649 35.9467 157.286 36.48C156.934 37.0027 156.401 37.4187 155.686 37.728C154.972 38.0373 154.102 38.192 153.078 38.192Z" fill="black"/>
<path d="M163.121 34.624L161.921 35.808V38H159.425V26.128H161.921V32.848L165.569 29.392H168.545L164.961 33.04L168.865 38H165.841L163.121 34.624Z" fill="black"/>
<path d="M178.032 29.392L174.144 38.528C173.749 39.52 173.259 40.2187 172.672 40.624C172.096 41.0293 171.397 41.232 170.576 41.232C170.128 41.232 169.685 41.1627 169.248 41.024C168.811 40.8853 168.453 40.6933 168.176 40.448L169.088 38.672C169.28 38.8427 169.499 38.976 169.744 39.072C170 39.168 170.251 39.216 170.496 39.216C170.837 39.216 171.115 39.1307 171.328 38.96C171.541 38.8 171.733 38.528 171.904 38.144L171.936 38.064L168.208 29.392H170.784L173.2 35.232L175.632 29.392H178.032Z" fill="black"/>
<path d="M184.138 29.264C184.938 29.264 185.664 29.4507 186.314 29.824C186.976 30.1867 187.493 30.704 187.866 31.376C188.24 32.0373 188.426 32.8107 188.426 33.696C188.426 34.5813 188.24 35.36 187.866 36.032C187.493 36.6933 186.976 37.2107 186.314 37.584C185.664 37.9467 184.938 38.128 184.138 38.128C183.04 38.128 182.176 37.7813 181.546 37.088V41.104H179.05V29.392H181.434V30.384C182.053 29.6373 182.954 29.264 184.138 29.264ZM183.706 36.08C184.346 36.08 184.869 35.8667 185.274 35.44C185.69 35.0027 185.898 34.4213 185.898 33.696C185.898 32.9707 185.69 32.3947 185.274 31.968C184.869 31.5307 184.346 31.312 183.706 31.312C183.066 31.312 182.538 31.5307 182.122 31.968C181.717 32.3947 181.514 32.9707 181.514 33.696C181.514 34.4213 181.717 35.0027 182.122 35.44C182.538 35.8667 183.066 36.08 183.706 36.08Z" fill="black"/>
<path d="M192.481 30.528C192.78 30.112 193.18 29.7973 193.681 29.584C194.193 29.3707 194.78 29.264 195.441 29.264V31.568C195.164 31.5467 194.977 31.536 194.881 31.536C194.167 31.536 193.607 31.7387 193.201 32.144C192.796 32.5387 192.593 33.136 192.593 33.936V38H190.097V29.392H192.481V30.528Z" fill="black"/>
<path d="M200.943 38.128C200.037 38.128 199.221 37.9413 198.495 37.568C197.781 37.184 197.221 36.656 196.815 35.984C196.41 35.312 196.207 34.5493 196.207 33.696C196.207 32.8427 196.41 32.08 196.815 31.408C197.221 30.736 197.781 30.2133 198.495 29.84C199.221 29.456 200.037 29.264 200.943 29.264C201.85 29.264 202.661 29.456 203.375 29.84C204.09 30.2133 204.65 30.736 205.055 31.408C205.461 32.08 205.663 32.8427 205.663 33.696C205.663 34.5493 205.461 35.312 205.055 35.984C204.65 36.656 204.09 37.184 203.375 37.568C202.661 37.9413 201.85 38.128 200.943 38.128ZM200.943 36.08C201.583 36.08 202.106 35.8667 202.511 35.44C202.927 35.0027 203.135 34.4213 203.135 33.696C203.135 32.9707 202.927 32.3947 202.511 31.968C202.106 31.5307 201.583 31.312 200.943 31.312C200.303 31.312 199.775 31.5307 199.359 31.968C198.943 32.3947 198.735 32.9707 198.735 33.696C198.735 34.4213 198.943 35.0027 199.359 35.44C199.775 35.8667 200.303 36.08 200.943 36.08Z" fill="black"/>
<path d="M208.166 38.128C207.729 38.128 207.361 37.9787 207.062 37.68C206.764 37.3813 206.614 37.008 206.614 36.56C206.614 36.1013 206.764 35.7333 207.062 35.456C207.361 35.168 207.729 35.024 208.166 35.024C208.604 35.024 208.972 35.168 209.27 35.456C209.569 35.7333 209.718 36.1013 209.718 36.56C209.718 37.008 209.569 37.3813 209.27 37.68C208.972 37.9787 208.604 38.128 208.166 38.128Z" fill="black"/>
<path d="M227.904 26.8L224.24 38H221.456L218.992 30.416L216.448 38H213.68L210 26.8H212.688L215.216 34.672L217.856 26.8H220.256L222.816 34.736L225.424 26.8H227.904Z" fill="black"/>
<path d="M232.007 29.264C233.34 29.264 234.364 29.584 235.079 30.224C235.793 30.8533 236.151 31.808 236.151 33.088V38H233.815V36.928C233.345 37.728 232.471 38.128 231.191 38.128C230.529 38.128 229.953 38.016 229.463 37.792C228.983 37.568 228.615 37.2587 228.359 36.864C228.103 36.4693 227.975 36.0213 227.975 35.52C227.975 34.72 228.273 34.0907 228.871 33.632C229.479 33.1733 230.412 32.944 231.671 32.944H233.655C233.655 32.4 233.489 31.984 233.159 31.696C232.828 31.3973 232.332 31.248 231.671 31.248C231.212 31.248 230.759 31.3227 230.311 31.472C229.873 31.6107 229.5 31.8027 229.191 32.048L228.295 30.304C228.764 29.9733 229.324 29.7173 229.975 29.536C230.636 29.3547 231.313 29.264 232.007 29.264ZM231.815 36.448C232.241 36.448 232.62 36.352 232.951 36.16C233.281 35.9573 233.516 35.664 233.655 35.28V34.4H231.943C230.919 34.4 230.407 34.736 230.407 35.408C230.407 35.728 230.529 35.984 230.775 36.176C231.031 36.3573 231.377 36.448 231.815 36.448Z" fill="black"/>
<path d="M238.41 26.128H240.906V38H238.41V26.128Z" fill="black"/>
<path d="M243.222 26.128H245.718V38H243.222V26.128Z" fill="black"/>
<path d="M256.467 33.728C256.467 33.76 256.451 33.984 256.419 34.4H249.907C250.024 34.9333 250.301 35.3547 250.739 35.664C251.176 35.9733 251.72 36.128 252.371 36.128C252.819 36.128 253.213 36.064 253.555 35.936C253.907 35.7973 254.232 35.584 254.531 35.296L255.859 36.736C255.048 37.664 253.864 38.128 252.307 38.128C251.336 38.128 250.477 37.9413 249.731 37.568C248.984 37.184 248.408 36.656 248.003 35.984C247.597 35.312 247.395 34.5493 247.395 33.696C247.395 32.8533 247.592 32.096 247.987 31.424C248.392 30.7413 248.941 30.2133 249.635 29.84C250.339 29.456 251.123 29.264 251.987 29.264C252.829 29.264 253.592 29.4453 254.275 29.808C254.957 30.1707 255.491 30.6933 255.875 31.376C256.269 32.048 256.467 32.832 256.467 33.728ZM252.003 31.152C251.437 31.152 250.963 31.312 250.579 31.632C250.195 31.952 249.96 32.3893 249.875 32.944H254.115C254.029 32.4 253.795 31.968 253.411 31.648C253.027 31.3173 252.557 31.152 252.003 31.152Z" fill="black"/>
<path d="M263.681 37.584C263.435 37.7653 263.131 37.904 262.769 38C262.417 38.0853 262.043 38.128 261.649 38.128C260.625 38.128 259.83 37.8667 259.265 37.344C258.71 36.8213 258.433 36.0533 258.433 35.04V31.504H257.105V29.584H258.433V27.488H260.929V29.584H263.073V31.504H260.929V35.008C260.929 35.3707 261.019 35.6533 261.201 35.856C261.393 36.048 261.659 36.144 262.001 36.144C262.395 36.144 262.731 36.0373 263.009 35.824L263.681 37.584Z" fill="black"/>
</svg>
