<svg width="14" height="15" viewBox="0 0 14 15" fill="none" xmlns="http://www.w3.org/2000/svg">
<path d="M9.91667 1.6665H4.08333C2.8 1.6665 1.75 2.7165 1.75 3.99984V10.9998C1.75 12.2832 2.8 13.3332 4.08333 13.3332H9.91667C11.2 13.3332 12.25 12.2832 12.25 10.9998V3.99984C12.25 2.7165 11.2 1.6665 9.91667 1.6665ZM6.335 11.0815C6.2475 11.169 6.13667 11.2098 6.02583 11.2098C5.915 11.2098 5.80417 11.169 5.71667 11.0815L5.3375 10.7023L4.97583 11.064C4.88833 11.1515 4.7775 11.1923 4.66667 11.1923C4.55583 11.1923 4.445 11.1515 4.3575 11.064C4.18833 10.8948 4.18833 10.6148 4.3575 10.4457L4.71917 10.084L4.375 9.73984C4.20583 9.57067 4.20583 9.29067 4.375 9.1215C4.54417 8.95234 4.82417 8.95234 4.99333 9.1215L5.3375 9.46567L5.69917 9.104C5.86833 8.93484 6.14833 8.93484 6.3175 9.104C6.48667 9.27317 6.48667 9.55317 6.3175 9.72234L5.95583 10.084L6.335 10.4632C6.50417 10.6323 6.50417 10.9123 6.335 11.0815ZM8.4525 11.2857C8.13167 11.2857 7.86917 11.029 7.86917 10.7082V10.6965C7.86917 10.3757 8.13167 10.1132 8.4525 10.1132C8.77333 10.1132 9.03583 10.3757 9.03583 10.6965C9.03583 11.0173 8.77333 11.2857 8.4525 11.2857ZM9.63083 10.0257C9.31 10.0257 9.04167 9.76317 9.04167 9.44234C9.04167 9.1215 9.29833 8.859 9.61917 8.859H9.63083C9.95167 8.859 10.2142 9.1215 10.2142 9.44234C10.2142 9.76317 9.95167 10.0257 9.63083 10.0257ZM10.5 5.89567C10.5 6.45567 10.0392 6.9165 9.47917 6.9165H4.52083C3.96083 6.9165 3.5 6.45567 3.5 5.89567V4.43734C3.5 3.87734 3.96083 3.4165 4.52083 3.4165H9.47917C10.0392 3.4165 10.5 3.87734 10.5 4.43734V5.89567Z" fill="black"/>
</svg>
